<svg xmlns="http://www.w3.org/2000/svg" viewBox="0 0 80 70" width="80" height="70" id="logo-en-big">
<style>.gst0{fill:#d53127}.gst1{fill:#008dd2}.gst2{fill:#333}</style>
<g id="gСлой_2">
<path class="gst0" d="M27.7 43.9h-1.4c-1.5 0-2.8-1.2-2.8-2.8V22.8c0-1.5 1.2-2.8 2.8-2.8h1.4c1.5 0 2.8 1.2 2.8 2.8v18.3c0 1.6-1.3 2.8-2.8 2.8zM16.8 37h-1.4c-1.5 0-2.8-1.2-2.8-2.8V5c0-1.5 1.2-2.8 2.8-2.8h1.4c1.5 0 2.8 1.2 2.8 2.8v29.2c-.1 1.5-1.3 2.8-2.8 2.8zM37.6 48.9h-1.4c-1.5 0-2.8-1.2-2.8-2.8V34.8c0-1.5 1.2-2.8 2.8-2.8h1.4c1.5 0 2.8 1.2 2.8 2.8v11.4c0 1.4-1.3 2.7-2.8 2.7z"/>
<path class="gst1" d="M46.5 6.6c-.8-1.2-1.9-2.4-3.1-3.2-2-1.2-4.9-1.7-7.4 0-2.2 1.5-2.5 3.7-1.9 6.1.9 3.9 2.8 7.4 4.5 10.9 3.2 6.7 7.3 12.9 9.6 20.1 2.8 9-1.8 13.3-8.8 13.3-3 0-6.6-.7-7.9-1-4.5-.8-12.3-4.9-18-10.3-1-1-3.6-4.2-3.9-4.6-1.5-1.7-3.2-3.8-6-2-2.5 1.7-.7 5.6 0 6.9 1.1 1.9 2.7 3.9 4.9 6.1 8 7.8 16.9 12.8 25.9 13.8 14 1.6 23.7-5 23.8-18.4.2-13.7-4.6-26.1-11.7-37.7z"/></g>
</svg>